<mxfile host="65bd71144e">
    <diagram id="ecO_6XLednZPoFfMAUDP" name="Page-1">
        <mxGraphModel dx="985" dy="549" grid="0" gridSize="10" guides="1" tooltips="1" connect="1" arrows="1" fold="1" page="1" pageScale="1" pageWidth="850" pageHeight="1100" background="#1A1A1A" math="0" shadow="0">
            <root>
                <mxCell id="0"/>
                <mxCell id="1" parent="0"/>
                <mxCell id="4" value="" style="edgeStyle=none;html=1;strokeWidth=2;fillColor=#1ba1e2;strokeColor=#006EAF;" edge="1" parent="1" source="2" target="3">
                    <mxGeometry relative="1" as="geometry"/>
                </mxCell>
                <mxCell id="2" value="Start" style="strokeWidth=2;html=1;shape=mxgraph.flowchart.terminator;whiteSpace=wrap;fillColor=#1ba1e2;fontColor=#ffffff;strokeColor=#006EAF;" vertex="1" parent="1">
                    <mxGeometry x="244" y="226" width="85" height="31" as="geometry"/>
                </mxCell>
                <mxCell id="6" value="" style="edgeStyle=none;html=1;strokeWidth=2;fillColor=#1ba1e2;strokeColor=#006EAF;" edge="1" parent="1" source="3">
                    <mxGeometry relative="1" as="geometry">
                        <mxPoint x="286.2119747117888" y="359.1487541837114" as="targetPoint"/>
                    </mxGeometry>
                </mxCell>
                <mxCell id="58" value="" style="edgeStyle=none;html=1;strokeWidth=2;startArrow=none;startFill=0;endArrow=classic;endFill=1;fillColor=#1ba1e2;strokeColor=#006EAF;exitX=1;exitY=0.5;exitDx=0;exitDy=0;entryX=0;entryY=0.5;entryDx=0;entryDy=0;" edge="1" parent="1" source="48" target="57">
                    <mxGeometry relative="1" as="geometry">
                        <Array as="points">
                            <mxPoint x="361" y="398"/>
                            <mxPoint x="358" y="305"/>
                        </Array>
                    </mxGeometry>
                </mxCell>
                <mxCell id="3" value="Read N" style="shape=parallelogram;html=1;strokeWidth=2;perimeter=parallelogramPerimeter;whiteSpace=wrap;rounded=1;arcSize=12;size=0.23;fillColor=#1ba1e2;fontColor=#ffffff;strokeColor=#006EAF;" vertex="1" parent="1">
                    <mxGeometry x="230" y="285" width="113" height="40" as="geometry"/>
                </mxCell>
                <mxCell id="52" value="" style="edgeStyle=none;html=1;strokeWidth=2;startArrow=none;startFill=0;endArrow=classic;endFill=1;fillColor=#1ba1e2;strokeColor=#006EAF;" edge="1" parent="1" source="48" target="50">
                    <mxGeometry relative="1" as="geometry">
                        <Array as="points">
                            <mxPoint x="194" y="394"/>
                        </Array>
                    </mxGeometry>
                </mxCell>
                <mxCell id="48" value="N &amp;gt; 1" style="rhombus;whiteSpace=wrap;html=1;fillColor=#1ba1e2;strokeColor=#006EAF;fontColor=#ffffff;strokeWidth=2;rounded=1;arcSize=12;" vertex="1" parent="1">
                    <mxGeometry x="246.5" y="356" width="80" height="80" as="geometry"/>
                </mxCell>
                <mxCell id="56" value="" style="edgeStyle=none;html=1;strokeWidth=2;startArrow=none;startFill=0;endArrow=classic;endFill=1;fillColor=#1ba1e2;strokeColor=#006EAF;" edge="1" parent="1">
                    <mxGeometry relative="1" as="geometry">
                        <mxPoint x="118" y="509" as="sourcePoint"/>
                        <mxPoint x="240" y="307" as="targetPoint"/>
                        <Array as="points">
                            <mxPoint x="76" y="509"/>
                            <mxPoint x="79" y="307"/>
                        </Array>
                    </mxGeometry>
                </mxCell>
                <mxCell id="50" value="Print &quot; Number must be &amp;gt; 1" style="whiteSpace=wrap;html=1;fillColor=#1ba1e2;strokeColor=#006EAF;fontColor=#ffffff;strokeWidth=2;rounded=1;arcSize=12;" vertex="1" parent="1">
                    <mxGeometry x="120" y="478" width="151" height="60" as="geometry"/>
                </mxCell>
                <mxCell id="53" value="No" style="text;html=1;align=center;verticalAlign=middle;resizable=0;points=[];autosize=1;strokeColor=none;fillColor=none;" vertex="1" parent="1">
                    <mxGeometry x="154" y="412" width="33" height="26" as="geometry"/>
                </mxCell>
                <mxCell id="60" value="" style="edgeStyle=none;html=1;strokeWidth=2;startArrow=none;startFill=0;endArrow=classic;endFill=1;fillColor=#1ba1e2;strokeColor=#006EAF;" edge="1" parent="1" source="57" target="59">
                    <mxGeometry relative="1" as="geometry"/>
                </mxCell>
                <mxCell id="57" value="Counter = 2&lt;br&gt;M = round(âˆšN)" style="rounded=1;whiteSpace=wrap;html=1;fillColor=#1ba1e2;fontColor=#ffffff;strokeColor=#006EAF;" vertex="1" parent="1">
                    <mxGeometry x="386" y="287" width="120" height="40" as="geometry"/>
                </mxCell>
                <mxCell id="63" value="" style="edgeStyle=none;html=1;strokeWidth=2;startArrow=none;startFill=0;endArrow=classic;endFill=1;fillColor=#1ba1e2;strokeColor=#006EAF;entryX=0.5;entryY=0;entryDx=0;entryDy=0;" edge="1" parent="1" source="59" target="62">
                    <mxGeometry relative="1" as="geometry">
                        <mxPoint x="803" y="628" as="targetPoint"/>
                        <Array as="points">
                            <mxPoint x="839" y="417"/>
                            <mxPoint x="920" y="415"/>
                            <mxPoint x="924" y="598"/>
                        </Array>
                    </mxGeometry>
                </mxCell>
                <mxCell id="66" value="" style="edgeStyle=none;html=1;strokeWidth=2;startArrow=none;startFill=0;endArrow=classic;endFill=1;fillColor=#1ba1e2;strokeColor=#006EAF;" edge="1" parent="1" source="59" target="65">
                    <mxGeometry relative="1" as="geometry">
                        <Array as="points">
                            <mxPoint x="377" y="414"/>
                            <mxPoint x="381" y="488"/>
                            <mxPoint x="443" y="491"/>
                        </Array>
                    </mxGeometry>
                </mxCell>
                <mxCell id="59" value="N &amp;lt;= Counter" style="rhombus;whiteSpace=wrap;html=1;fillColor=#1ba1e2;strokeColor=#006EAF;fontColor=#ffffff;rounded=1;" vertex="1" parent="1">
                    <mxGeometry x="399" y="377" width="94" height="80" as="geometry"/>
                </mxCell>
                <mxCell id="61" value="Yes" style="text;html=1;align=center;verticalAlign=middle;resizable=0;points=[];autosize=1;strokeColor=none;fillColor=none;" vertex="1" parent="1">
                    <mxGeometry x="675.5" y="393" width="38" height="26" as="geometry"/>
                </mxCell>
                <mxCell id="87" value="" style="edgeStyle=none;html=1;strokeWidth=2;startArrow=none;startFill=0;endArrow=classic;endFill=1;entryX=1;entryY=0.5;entryDx=0;entryDy=0;entryPerimeter=0;fillColor=#1ba1e2;strokeColor=#006EAF;" edge="1" parent="1" source="62" target="71">
                    <mxGeometry relative="1" as="geometry">
                        <mxPoint x="750.5" y="722" as="targetPoint"/>
                        <Array as="points">
                            <mxPoint x="924" y="742"/>
                        </Array>
                    </mxGeometry>
                </mxCell>
                <mxCell id="62" value="Print Prime" style="shape=parallelogram;html=1;strokeWidth=2;perimeter=parallelogramPerimeter;whiteSpace=wrap;rounded=1;arcSize=12;size=0.10619469026548672;fillColor=#1ba1e2;fontColor=#ffffff;strokeColor=#006EAF;" vertex="1" parent="1">
                    <mxGeometry x="867" y="606" width="113" height="40" as="geometry"/>
                </mxCell>
                <mxCell id="70" value="" style="edgeStyle=none;html=1;strokeWidth=2;startArrow=none;startFill=0;endArrow=classic;endFill=1;entryX=0.451;entryY=-0.05;entryDx=0;entryDy=0;entryPerimeter=0;fillColor=#1ba1e2;strokeColor=#006EAF;" edge="1" parent="1" source="65" target="67">
                    <mxGeometry relative="1" as="geometry">
                        <mxPoint x="257" y="592" as="targetPoint"/>
                        <Array as="points">
                            <mxPoint x="295" y="590"/>
                        </Array>
                    </mxGeometry>
                </mxCell>
                <mxCell id="76" value="" style="edgeStyle=none;html=1;strokeWidth=2;startArrow=none;startFill=0;endArrow=classic;endFill=1;fillColor=#1ba1e2;strokeColor=#006EAF;" edge="1" parent="1" source="65" target="75">
                    <mxGeometry relative="1" as="geometry"/>
                </mxCell>
                <mxCell id="65" value="N mod &lt;br&gt;Counter = 0" style="rhombus;whiteSpace=wrap;html=1;fillColor=#1ba1e2;strokeColor=#006EAF;fontColor=#ffffff;rounded=1;" vertex="1" parent="1">
                    <mxGeometry x="371.5" y="538" width="149" height="108" as="geometry"/>
                </mxCell>
                <mxCell id="73" value="" style="edgeStyle=none;html=1;strokeWidth=2;startArrow=none;startFill=0;endArrow=classic;endFill=1;entryX=0;entryY=0.5;entryDx=0;entryDy=0;entryPerimeter=0;fillColor=#1ba1e2;strokeColor=#006EAF;" edge="1" parent="1" source="67" target="71">
                    <mxGeometry relative="1" as="geometry">
                        <mxPoint x="302.5" y="753" as="targetPoint"/>
                        <Array as="points">
                            <mxPoint x="303" y="747"/>
                        </Array>
                    </mxGeometry>
                </mxCell>
                <mxCell id="67" value="Print Not Prime" style="shape=parallelogram;html=1;strokeWidth=2;perimeter=parallelogramPerimeter;whiteSpace=wrap;rounded=1;arcSize=12;size=0.23;fillColor=#1ba1e2;fontColor=#ffffff;strokeColor=#006EAF;" vertex="1" parent="1">
                    <mxGeometry x="237" y="643" width="131" height="40" as="geometry"/>
                </mxCell>
                <mxCell id="71" value="End" style="strokeWidth=2;html=1;shape=mxgraph.flowchart.terminator;whiteSpace=wrap;fillColor=#1ba1e2;fontColor=#ffffff;strokeColor=#006EAF;" vertex="1" parent="1">
                    <mxGeometry x="443" y="732" width="85" height="31" as="geometry"/>
                </mxCell>
                <mxCell id="74" value="Yes" style="text;html=1;align=center;verticalAlign=middle;resizable=0;points=[];autosize=1;strokeColor=none;fillColor=none;" vertex="1" parent="1">
                    <mxGeometry x="286" y="555" width="38" height="26" as="geometry"/>
                </mxCell>
                <mxCell id="77" value="" style="edgeStyle=none;html=1;strokeWidth=2;startArrow=none;startFill=0;endArrow=classic;endFill=1;fillColor=#1ba1e2;strokeColor=#006EAF;" edge="1" parent="1" source="75">
                    <mxGeometry relative="1" as="geometry">
                        <mxPoint x="765" y="610" as="targetPoint"/>
                        <Array as="points">
                            <mxPoint x="765" y="596"/>
                        </Array>
                    </mxGeometry>
                </mxCell>
                <mxCell id="82" value="" style="edgeStyle=none;html=1;strokeWidth=2;startArrow=none;startFill=0;endArrow=classic;endFill=1;fillColor=#1ba1e2;strokeColor=#006EAF;" edge="1" parent="1" target="81">
                    <mxGeometry relative="1" as="geometry">
                        <mxPoint x="776" y="551" as="sourcePoint"/>
                        <Array as="points">
                            <mxPoint x="773" y="494"/>
                            <mxPoint x="620" y="494"/>
                        </Array>
                    </mxGeometry>
                </mxCell>
                <mxCell id="97" value="" style="edgeStyle=none;html=1;strokeWidth=2;startArrow=none;startFill=0;endArrow=classic;endFill=1;entryX=1;entryY=0.75;entryDx=0;entryDy=0;exitX=0.5;exitY=1;exitDx=0;exitDy=0;fillColor=#1ba1e2;strokeColor=#006EAF;" edge="1" parent="1" source="75" target="67">
                    <mxGeometry relative="1" as="geometry">
                        <mxPoint x="623.25" y="743.25" as="targetPoint"/>
                        <Array as="points">
                            <mxPoint x="623" y="667"/>
                        </Array>
                    </mxGeometry>
                </mxCell>
                <mxCell id="75" value="M % counter&lt;br&gt;= 0" style="rhombus;whiteSpace=wrap;html=1;fillColor=#1ba1e2;strokeColor=#006EAF;fontColor=#ffffff;rounded=1;" vertex="1" parent="1">
                    <mxGeometry x="571" y="550" width="104.5" height="95.5" as="geometry"/>
                </mxCell>
                <mxCell id="78" value="No" style="text;html=1;align=center;verticalAlign=middle;resizable=0;points=[];autosize=1;strokeColor=none;fillColor=none;" vertex="1" parent="1">
                    <mxGeometry x="523" y="564" width="33" height="26" as="geometry"/>
                </mxCell>
                <mxCell id="79" value="No" style="text;html=1;align=center;verticalAlign=middle;resizable=0;points=[];autosize=1;strokeColor=none;fillColor=none;" vertex="1" parent="1">
                    <mxGeometry x="691" y="572" width="33" height="26" as="geometry"/>
                </mxCell>
                <mxCell id="83" value="" style="edgeStyle=none;html=1;strokeWidth=2;startArrow=none;startFill=0;endArrow=none;endFill=0;fillColor=#1ba1e2;strokeColor=#006EAF;" edge="1" parent="1" source="81">
                    <mxGeometry relative="1" as="geometry">
                        <mxPoint x="439" y="491" as="targetPoint"/>
                    </mxGeometry>
                </mxCell>
                <mxCell id="81" value="Counter = Counter +1" style="whiteSpace=wrap;html=1;fillColor=#1ba1e2;fontColor=#ffffff;strokeColor=#006EAF;" vertex="1" parent="1">
                    <mxGeometry x="467" y="473" width="120" height="35" as="geometry"/>
                </mxCell>
                <mxCell id="84" value="No" style="text;html=1;align=center;verticalAlign=middle;resizable=0;points=[];autosize=1;strokeColor=none;fillColor=none;" vertex="1" parent="1">
                    <mxGeometry x="346" y="429" width="33" height="26" as="geometry"/>
                </mxCell>
                <mxCell id="95" value="" style="edgeStyle=none;html=1;strokeWidth=2;startArrow=none;startFill=0;endArrow=none;endFill=0;exitX=1;exitY=0.5;exitDx=0;exitDy=0;exitPerimeter=0;fillColor=#1ba1e2;strokeColor=#006EAF;" edge="1" parent="1" source="88">
                    <mxGeometry relative="1" as="geometry">
                        <mxPoint x="924" y="554" as="targetPoint"/>
                        <Array as="points">
                            <mxPoint x="856" y="593"/>
                            <mxPoint x="854" y="554"/>
                        </Array>
                    </mxGeometry>
                </mxCell>
                <mxCell id="88" value="M = Counter" style="rhombus;whiteSpace=wrap;html=1;fillColor=#1ba1e2;fontColor=#ffffff;strokeColor=#006EAF;" vertex="1" parent="1">
                    <mxGeometry x="732" y="555" width="90" height="80" as="geometry"/>
                </mxCell>
                <mxCell id="91" value="No" style="text;html=1;align=center;verticalAlign=middle;resizable=0;points=[];autosize=1;strokeColor=none;fillColor=none;" vertex="1" parent="1">
                    <mxGeometry x="681" y="457" width="33" height="26" as="geometry"/>
                </mxCell>
                <mxCell id="94" value="Yes" style="text;html=1;align=center;verticalAlign=middle;resizable=0;points=[];autosize=1;strokeColor=none;fillColor=none;" vertex="1" parent="1">
                    <mxGeometry x="859" y="533" width="38" height="26" as="geometry"/>
                </mxCell>
                <mxCell id="98" value="Yes" style="text;html=1;align=center;verticalAlign=middle;resizable=0;points=[];autosize=1;strokeColor=none;fillColor=none;" vertex="1" parent="1">
                    <mxGeometry x="497" y="643" width="38" height="26" as="geometry"/>
                </mxCell>
            </root>
        </mxGraphModel>
    </diagram>
</mxfile>